<mxfile host="app.diagrams.net" modified="2022-07-23T07:24:14.505Z" agent="5.0 (Windows NT 10.0; Win64; x64) AppleWebKit/537.36 (KHTML, like Gecko) Chrome/103.0.5060.114 Safari/537.36 Edg/103.0.1264.62" etag="O0Sl7q3nlwSZ05hqXaTe" version="20.2.0" type="github">
  <diagram id="XUZewNiei28WdZJyJ3XE" name="Proses">
    <mxGraphModel dx="1038" dy="539" grid="1" gridSize="10" guides="1" tooltips="1" connect="1" arrows="1" fold="1" page="1" pageScale="1" pageWidth="850" pageHeight="1100" math="0" shadow="0">
      <root>
        <mxCell id="0" />
        <mxCell id="1" parent="0" />
        <mxCell id="yOf8YQlEk-ArgHsIVHhL-8" style="edgeStyle=orthogonalEdgeStyle;rounded=0;orthogonalLoop=1;jettySize=auto;html=1;exitX=0.5;exitY=1;exitDx=0;exitDy=0;entryX=0.5;entryY=0;entryDx=0;entryDy=0;" edge="1" parent="1" source="yOf8YQlEk-ArgHsIVHhL-1" target="yOf8YQlEk-ArgHsIVHhL-2">
          <mxGeometry relative="1" as="geometry" />
        </mxCell>
        <mxCell id="yOf8YQlEk-ArgHsIVHhL-1" value="User" style="ellipse;whiteSpace=wrap;html=1;" vertex="1" parent="1">
          <mxGeometry x="365" y="20" width="120" height="80" as="geometry" />
        </mxCell>
        <mxCell id="yOf8YQlEk-ArgHsIVHhL-9" style="edgeStyle=orthogonalEdgeStyle;rounded=0;orthogonalLoop=1;jettySize=auto;html=1;exitX=0.5;exitY=1;exitDx=0;exitDy=0;entryX=0.5;entryY=0;entryDx=0;entryDy=0;" edge="1" parent="1">
          <mxGeometry relative="1" as="geometry">
            <mxPoint x="426" y="220" as="sourcePoint" />
            <mxPoint x="431" y="270" as="targetPoint" />
            <Array as="points">
              <mxPoint x="430" y="220" />
              <mxPoint x="430" y="245" />
              <mxPoint x="431" y="245" />
            </Array>
          </mxGeometry>
        </mxCell>
        <mxCell id="yOf8YQlEk-ArgHsIVHhL-13" style="edgeStyle=orthogonalEdgeStyle;rounded=0;orthogonalLoop=1;jettySize=auto;html=1;exitX=1;exitY=0.5;exitDx=0;exitDy=0;entryX=1;entryY=0.5;entryDx=0;entryDy=0;" edge="1" parent="1" source="yOf8YQlEk-ArgHsIVHhL-2" target="yOf8YQlEk-ArgHsIVHhL-1">
          <mxGeometry relative="1" as="geometry">
            <Array as="points">
              <mxPoint x="520" y="180" />
              <mxPoint x="520" y="60" />
            </Array>
          </mxGeometry>
        </mxCell>
        <mxCell id="yOf8YQlEk-ArgHsIVHhL-2" value="Login" style="rhombus;whiteSpace=wrap;html=1;" vertex="1" parent="1">
          <mxGeometry x="385" y="140" width="80" height="80" as="geometry" />
        </mxCell>
        <mxCell id="yOf8YQlEk-ArgHsIVHhL-10" style="edgeStyle=orthogonalEdgeStyle;rounded=0;orthogonalLoop=1;jettySize=auto;html=1;exitX=0.5;exitY=1;exitDx=0;exitDy=0;entryX=0.5;entryY=0;entryDx=0;entryDy=0;" edge="1" parent="1" source="yOf8YQlEk-ArgHsIVHhL-3" target="yOf8YQlEk-ArgHsIVHhL-4">
          <mxGeometry relative="1" as="geometry" />
        </mxCell>
        <mxCell id="yOf8YQlEk-ArgHsIVHhL-3" value="Dashboard Store&amp;nbsp;" style="rounded=0;whiteSpace=wrap;html=1;" vertex="1" parent="1">
          <mxGeometry x="370" y="270" width="120" height="60" as="geometry" />
        </mxCell>
        <mxCell id="yOf8YQlEk-ArgHsIVHhL-11" style="edgeStyle=orthogonalEdgeStyle;rounded=0;orthogonalLoop=1;jettySize=auto;html=1;exitX=0.5;exitY=1;exitDx=0;exitDy=0;entryX=0.5;entryY=0;entryDx=0;entryDy=0;" edge="1" parent="1" source="yOf8YQlEk-ArgHsIVHhL-4" target="yOf8YQlEk-ArgHsIVHhL-5">
          <mxGeometry relative="1" as="geometry" />
        </mxCell>
        <mxCell id="yOf8YQlEk-ArgHsIVHhL-4" value="Pilih Produk" style="rounded=0;whiteSpace=wrap;html=1;" vertex="1" parent="1">
          <mxGeometry x="370" y="370" width="120" height="60" as="geometry" />
        </mxCell>
        <mxCell id="yOf8YQlEk-ArgHsIVHhL-12" style="edgeStyle=orthogonalEdgeStyle;rounded=0;orthogonalLoop=1;jettySize=auto;html=1;exitX=0.5;exitY=1;exitDx=0;exitDy=0;entryX=0.5;entryY=0;entryDx=0;entryDy=0;" edge="1" parent="1" source="yOf8YQlEk-ArgHsIVHhL-5" target="yOf8YQlEk-ArgHsIVHhL-7">
          <mxGeometry relative="1" as="geometry" />
        </mxCell>
        <mxCell id="yOf8YQlEk-ArgHsIVHhL-5" value="Checkout" style="rounded=0;whiteSpace=wrap;html=1;" vertex="1" parent="1">
          <mxGeometry x="370" y="470" width="120" height="60" as="geometry" />
        </mxCell>
        <mxCell id="yOf8YQlEk-ArgHsIVHhL-7" value="Logout" style="ellipse;whiteSpace=wrap;html=1;" vertex="1" parent="1">
          <mxGeometry x="370" y="570" width="120" height="80" as="geometry" />
        </mxCell>
      </root>
    </mxGraphModel>
  </diagram>
</mxfile>
